<svg xmlns="http://www.w3.org/2000/svg" xml:space="preserve" id="rascal" x="0" y="0" version="1.1" viewBox="0 0 41.7 39.8">
  <style>
    .st3{fill:#97b0c5}.st4{fill:#8ca4b4}.st5{fill:#6b7d8d}
  </style>
  <path fill="#acd084" d="M9.7 20h4.8l2.5-4.2h-4.9z"/>
  <path fill="#cad52f" d="m32.9 23.9-2.4-4.2h-4.9l2.4 4.2z"/>
  <path fill="#83d0f5" d="M23.6 1.8 21.2 6l2.4 4.2L26.1 6z"/>
  <path d="m18.8 27.4-4.5-7.8-2.5 4.2L20 37.9l8-14-2.4-4.2-4.4 7.7z" class="st3"/>
  <path d="M18.8 27.4h2.4l1.2-2.1-3.3-5.7h-4.8z" class="st4"/>
  <path d="M28 23.9h4.9l-8.1 14H20z" class="st5"/>
  <path d="M12.1 15.8 9.7 20 1.9 6.6l2.5-4.2z" class="st3"/>
  <path d="M14.9 6c-1.5 0-2.6 1.7-1.9 3l.7 1.2h5.4L21.6 6h-6.7z" class="st5"/>
  <path d="M13 8.9c-.7-1.2.4-3 1.9-3h6.7l-2.4-4.2h-5.3c-2.7 0-4.1 1.6-4.1 1.6l-.6-1H4.3l7.8 13.4H17l-4-6.8z" class="st4"/>
  <path d="m30.4 20.1 3.8-6.6c.9-1.5-.1-3.3-1.8-3.3h-1.2L28 15.9l2.4 4.2z" class="st3"/>
  <path d="M38.5 8.9zM27.1 6h6.6c2.1 0 3.8 1.2 4.8 2.8l-2.3-4s-1.5-3-4.8-3h-7.7L26.1 6h1z" class="st4"/>
  <path d="M34.2 13.4c.9-1.5-.1-3.3-1.8-3.3h-8.8L26.1 6h7.6c4.3 0 7 4.8 4.8 8.4l-3.3 5.7h-4.9l3.9-6.7z" class="st5"/>
</svg>
