<svg xmlns="http://www.w3.org/2000/svg" id="svg16" width="1443.876" height="1443.876" version="1.1">
  <defs id="defs1">
    <style id="style1">
      .cls-1{fill:none}.cls-1,.cls-2,.cls-5,.cls-6{stroke-width:0}.cls-5{fill:#8ca4b4}.cls-2{fill:#768c9c}.cls-6{fill:#97b0c5}
    </style>
  </defs>
  <g id="kleurvlakken" transform="translate(-.00664417 37.073)">
    <path id="polygon1" d="M395.4 517.23 692.68 4h194.09L589.49 517.23z" class="cls-6"/>
    <path id="polygon2" d="M316.21 657.72 4 1197.52l615.28.24 97.05-168.09-324.25.44-48.82-84.56L510.3 657.72z" class="cls-6"/>
    <path id="polygon3" d="m488.83 1029.11 118.78-202.97-97.04-168.08-167.31 287.49 48.82 84.56z" class="cls-5"/>
    <path id="polygon4" d="m716.6 1365.74-615.54-.08-97.04-168.09 615.54.08z" class="cls-2"/>
    <path id="path4" d="M1064.34 1196.46c68.85.36 111.38-70.12 78.82-126.52l-23.99-41.48-234.5.07-97.04 168.08z" class="cls-6"/>
    <path id="path5" d="M973.14 439.73c-30.48-52.79-111.71-54.31-140.98-5.26l-28 48.49 95.81 165.27 193.9.14z" class="cls-2"/>
    <path id="path6" d="M832.15 434.47c29.27-49.06 110.5-47.54 140.98 5.26l120.63 208.52 97.03-168.05-92.68-160.19c-53.75-93.09-137.12-108.66-137.12-108.66l22.58-39.15L886.53 4.12 589.78 517.63l97.04 168.08 145.33-251.25Z" class="cls-5"/>
    <g id="g8">
      <path id="path7" fill="#8ca4b4" stroke="#54687d" stroke-linecap="square" stroke-linejoin="round" stroke-width="8" d="M1308.47 1256.55v.02l.11-.19c-.03.06-.07.11-.1.17z"/>
      <path id="path8" d="M1313.68 1028.84c41.31 72.24 35.56 154.73-.65 219.86l92.49-159.42s72.58-111.12 7.06-224.61l-140.44-244-97.02 168.04 138.55 240.14z" class="cls-5"/>
    </g>
    <path id="path9" d="M1064.34 1196.46c68.85.36 111.38-70.12 78.82-126.52L980.99 788.59h194.1l138.59 240.24c84.43 147.65-27.68 338.13-194.8 335.67l-234.21.2-97.04-168.08 276.72-.15z" class="cls-2"/>
    <path id="polygon9" fill="#91c579" stroke-width="0" d="M526.3 685.31h160.29l-97.05-168.08H395.46l81.11 140.49 34 .34z"/>
    <path id="polygon10" fill="#71cbf4" stroke-width="0" d="m1093.86 648.37-31.93-.02-80.97 140.23h194.09l97.05-168.08h-162.32l-16 27.72z"/>
    <path id="polygon11" fill="#c7d540" stroke-width="0" d="m800.3 1174.66-83.84-145.22-97.04 168.08 97.04 168.09 84.37-146.13-13.21-22.87h.01z"/>
  </g>
  <g id="lijnen" transform="translate(-.00664417 37.073)">
    <g id="g16">
      <path id="path11" d="M513.56 655.42c.17.2.34.41.47.64l14.58 25.25h151.05l-66.97-116-25.45-44.09H402.39l76.5 132.5h31.42c1.31 0 2.52.64 3.26 1.7z" class="cls-1"/>
      <path id="path12" d="M896.5 650.24 804.13 490.9 690.28 687.72c-.72 1.24-2.04 2-3.46 2-.61 0-1.2-.15-1.73-.4H533.23l77.85 134.83c.72 1.25.71 2.78-.01 4.02l-115.76 197.8 219.82-.29c.42-.15.87-.24 1.33-.24 1.43 0 2.75.76 3.46 2l80.38 139.22 80.9-140.12c.71-1.24 2.03-2 3.46-2l227.66-.07-134.68-233.66c-.05-.07-.1-.14-.14-.22-.71-1.24-.71-2.76 0-4l77.5-134.24-155.04-.11c-1.43 0-2.74-.76-3.46-1.99z" class="cls-1"/>
      <path id="path13" d="M784.16 1198.62c-.71-1.24-.71-2.76 0-4 0 0 0-.01.01-.02l11.51-19.94-79.22-137.22-92.39 160.03 92.42 160.08 79.71-138.07-12.05-20.86z" class="cls-1"/>
      <path id="path14" d="M1097.33 650.37c-.71 1.24-2.04 2-3.46 2l-29.62-.02-76.35 132.24h184.85l92.43-160.08h-153.07l-14.36 24.87c-.09.35-.22.68-.41 1z" class="cls-1"/>
      <path id="polygon14" d="M694.99 8 402.34 513.23h184.84L810.7 127.34 879.67 8z" class="cls-1"/>
      <path id="polygon15" d="m103.37 1361.66 606.24.08-92.37-159.98-418.48-.16-187.81-.03z" class="cls-1"/>
      <path id="path15" d="m1409.12 866.66-136.98-237.99-92.38 160 137.38 238.16v.01c0 .01.01.02.02.03.81 1.42 1.6 2.85 2.38 4.29.23.43.46.85.69 1.28.63 1.17 1.24 2.34 1.84 3.52.16.32.33.64.5.96.7 1.38 1.38 2.77 2.05 4.16.26.54.51 1.07.76 1.61.45.97.9 1.93 1.34 2.9.25.55.5 1.1.75 1.66.59 1.33 1.17 2.67 1.73 4.01.26.62.51 1.24.76 1.85.36.87.71 1.75 1.05 2.62.26.66.52 1.32.78 1.99.46 1.2.91 2.41 1.35 3.62.26.71.5 1.41.75 2.12.33.94.66 1.88.97 2.82.22.65.43 1.29.64 1.94.36 1.09.7 2.19 1.04 3.28.15.5.31 1 .46 1.5.42 1.38.82 2.76 1.2 4.14.14.49.27.97.4 1.46.35 1.28.69 2.56 1.01 3.84.07.28.15.57.22.85.41 1.64.8 3.28 1.17 4.93.04.16.07.33.11.49.36 1.62.7 3.23 1.03 4.86.02.08.03.16.05.25 3.15 15.82 4.56 31.99 4.18 48.24 0 .37-.02.74-.03 1.11-.01.49-.02.97-.04 1.46-.02.71-.06 1.42-.09 2.13-.06 1.37-.14 2.73-.22 4.1-.02.37-.04.74-.07 1.11-1 15.06-3.5 30.1-7.52 44.93l63.62-109.67c.04-.06.07-.12.11-.18.18-.27 17.98-27.88 27.62-68.76 5.64-23.91 7.44-47.63 5.33-70.5-2.63-28.53-11.38-55.84-26-81.17z" class="cls-1"/>
      <path id="path16" fill="#54687d" stroke-width="0" d="M1416.05 862.67 1275.8 619.01c-.07-.17-.15-.34-.25-.51-.71-1.24-2.04-2-3.46-2h-155.38l77.54-134.3c.72-1.24.71-2.77 0-4l-92.68-160.19c-28.22-48.87-64.63-76.31-90.21-90.72-19.83-11.17-36.16-16.43-44.22-18.58l19.9-34.5c.71-1.24.71-2.76 0-4L890.71 3.36c-.08-.47-.23-.93-.48-1.36-.71-1.24-2.04-2-3.47-2H692.67c-1.43 0-2.75.76-3.46 2L391.93 515.23c-.72 1.24-.72 2.76 0 4 .1.18.22.34.34.5l77.37 134H316.21c-1.43 0-2.75.76-3.46 2L.54 1195.52c-.63 1.09-.7 2.41-.22 3.55.07.17.15.34.24.5l97.04 168.08c.71 1.24 2.03 2 3.46 2l615.54.08c1.43 0 2.75-.76 3.46-2 .21-.36.35-.74.43-1.13l80.32-139.13 80.38 139.22c.71 1.24 2.04 2 3.46 2l234.15-.2c1.06.02 2.12.02 3.19.02 39.2 0 77.6-10.67 111.24-30.93 32.56-19.62 60.29-47.82 80.21-81.57 1.04-1.76 2.05-3.54 3.05-5.33l92.43-159.32c1.36-2.11 18.77-29.55 28.58-70.92 9.25-39 13.04-98.02-21.47-157.78zM1265.17 624.5l-92.43 160.08H987.89l76.35-132.24 29.62.02c1.43 0 2.75-.76 3.46-2 .18-.32.32-.65.41-1l14.36-24.87h153.07zm-449.89 568.1h-9.23l-11.49.01 5.75-9.95 4.62-8 82.06-142.13 229.88-.07 22.83 39.48c7.09 12.28 10.62 25.77 10.58 39.27-.04 13.5-3.64 27.01-10.8 39.34-15.26 26.27-43.12 41.9-74.61 41.9h-.52l-249.06.14zm69.39-168.07c-1.43 0-2.75.76-3.46 2l-80.9 140.12-80.38-139.22c-.71-1.24-2.04-2-3.46-2-.46 0-.91.09-1.33.24l-219.82.29 115.76-197.8c.73-1.24.73-2.78.01-4.02l-77.85-134.83H685.1c.53.26 1.12.4 1.73.4 1.43 0 2.75-.76 3.46-2l113.85-196.82 92.37 159.34c.72 1.23 2.03 1.99 3.46 1.99l155.04.11-77.5 134.24c-.71 1.24-.71 2.76 0 4 .04.08.1.14.14.22l134.68 233.66-227.66.07zM497.01 689.31l4.66-8 8.89-15.27 8.82 15.27 4.62 8 78.99 136.82-116.46 199-92.15.95-27.14-47-19.36-33.53L497 689.31Zm580.85-60.56 9.03 15.61h-18.04l-9.23-.02-157.35-.11-93.49-161.27 26.68-46.22.13-.23c.22-.37.46-.74.69-1.1.18-.29.35-.57.53-.86.25-.39.52-.77.77-1.15.17-.25.33-.5.51-.75.28-.4.57-.79.86-1.19.16-.22.32-.45.48-.67.31-.41.63-.81.95-1.21.15-.19.3-.39.46-.59.34-.42.7-.84 1.05-1.25.14-.16.27-.33.41-.49.37-.43.76-.85 1.14-1.27.13-.14.25-.28.38-.42.42-.46.86-.9 1.3-1.34.09-.1.18-.19.28-.29.47-.47.95-.93 1.44-1.39.07-.06.13-.13.2-.19.53-.49 1.07-.98 1.61-1.46.02-.02.05-.04.07-.06 11.97-10.44 27.81-16.75 45.39-17.8.09 0 .18-.01.27-.02.66-.04 1.32-.06 1.98-.09.22 0 .44-.02.67-.02.53-.01 1.06-.02 1.59-.02.48 0 .96-.01 1.44 0 4.64.03 9.18.42 13.61 1.13 1.04.17 2.07.36 3.09.56 22.56 4.49 41.68 17.7 52.93 37.17l103.57 179.03 4.62 7.99zM978.95 172.2l-21.43 37.15c-.65 1.12-.71 2.49-.17 3.67.54 1.18 1.62 2.02 2.9 2.26.82.15 82.17 16.27 134.39 106.73l91.52 158.19-78.69 136.3-4.62 8-9.08 15.73-9.1-15.73-4.63-8-103.45-178.78c-.32-.56-.66-1.11-1-1.66-.16-.27-.32-.54-.48-.8-.26-.42-.54-.83-.81-1.24-.25-.39-.49-.78-.75-1.16-.19-.29-.4-.57-.6-.85-.34-.5-.68-.99-1.03-1.48l-.54-.72c-.38-.52-.77-1.04-1.16-1.55-.03-.04-.07-.08-.1-.12-16.21-20.82-41.62-33.06-70.04-33.27h-.71c-1.89 0-3.76.05-5.62.16-27.87 1.62-51.88 15.31-65.05 37.39 0 .02-.02.03-.03.05L686.8 677.73l-92.43-160.09 223.09-386.05 69.12-119.33 92.35 159.95ZM694.99 8h184.68l-68.96 119.34-223.52 385.89H402.35Zm-292.6 513.23h184.85l25.45 44.09 66.97 116H528.61l-14.58-25.25c-.13-.23-.3-.44-.47-.64-.74-1.06-1.96-1.7-3.26-1.7h-31.42l-76.5-132.5zm-83.86 140.5h184.83l-9.95 17.15-4.63 7.98-148.97 256.69c-.07.12-.13.25-.19.37-.02.03-.04.07-.05.1-.06.13-.1.27-.14.41 0 .03-.02.06-.03.09-.04.14-.06.28-.08.42 0 .03-.01.06-.02.09-.02.13-.02.26-.03.39v.13c0 .1.01.2.02.3 0 .07 0 .15.01.22 0 .06.02.11.03.17.02.11.04.23.07.34.09.33.22.66.4.97l48.82 84.56c.71 1.24 2.04 2 3.46 2h.05l317.26-.42-92.36 159.97-419.57-.06-186.52-.07zm-215.15 699.93-92.42-160.08 187.81.03 418.48.16 92.37 159.98-606.24-.08zm613.12-4.11-92.42-160.08 92.39-160.03 79.22 137.22-11.51 19.94s0 .01-.01.02c-.71 1.24-.71 2.76 0 4l12.05 20.86-79.71 138.07zm600.88-126.26c-.3.65-.59 1.3-.89 1.95-.48 1.02-1 2.03-1.49 3.04-.6 1.22-1.19 2.44-1.81 3.65-.34.67-.71 1.33-1.06 2-.79 1.51-1.59 3.01-2.41 4.5-1.02 1.85-2.07 3.69-3.14 5.52-19.24 32.61-46.02 59.86-77.44 78.79-33.27 20.04-71.38 30.33-110.24 29.76l-231.9.19-81.53-141.22-4.62-8-6.28-10.87h12.56l9.24-.01 247.46-.14h1.05c6.44 0 12.75-.6 18.86-1.77 2.03-.39 4.05-.84 6.03-1.36.99-.26 1.98-.53 2.96-.82 22.56-6.61 41.67-21.27 53.67-41.94 15.78-27.17 15.87-59.56.24-86.63L987.93 792.57h184.84l137.46 238.24v.01c1.13 1.98 2.23 3.98 3.29 5.99.06.12.13.24.2.36 1.01 1.92 1.99 3.84 2.94 5.78.11.23.23.45.34.68.91 1.87 1.78 3.74 2.63 5.63.14.3.27.6.41.91.82 1.84 1.61 3.7 2.38 5.56.14.34.28.67.41 1.01.76 1.86 1.48 3.73 2.18 5.61.12.32.24.65.36.97.71 1.92 1.39 3.85 2.03 5.79.08.25.17.5.25.76.67 2.03 1.32 4.07 1.93 6.12.03.11.07.23.1.34 7.23 24.4 10 49.81 8.31 75.2-1.86 27.35-8.89 54.46-20.59 79.77zm112.42-212.96c-9.65 40.88-27.45 68.49-27.62 68.76-.04.06-.08.12-.11.18l-63.62 109.67c4.02-14.83 6.52-29.87 7.52-44.93.03-.37.04-.74.07-1.11.08-1.37.16-2.73.22-4.1.03-.71.07-1.42.09-2.13.02-.49.02-.97.04-1.46l.03-1.11c.38-16.25-1.03-32.42-4.18-48.24-.02-.08-.03-.16-.05-.25-.32-1.62-.67-3.24-1.03-4.86-.04-.16-.07-.33-.11-.49-.37-1.65-.76-3.29-1.17-4.93-.07-.28-.15-.57-.22-.85-.33-1.28-.66-2.56-1.01-3.84-.13-.49-.27-.97-.4-1.46-.39-1.38-.79-2.77-1.2-4.14-.15-.5-.31-1-.46-1.5-.34-1.1-.69-2.19-1.04-3.28-.21-.65-.43-1.3-.64-1.94-.32-.94-.64-1.88-.97-2.82-.25-.71-.5-1.42-.75-2.12-.44-1.21-.89-2.41-1.35-3.62-.25-.66-.52-1.33-.78-1.99-.35-.88-.7-1.75-1.05-2.62-.25-.62-.5-1.24-.76-1.85-.56-1.34-1.14-2.68-1.73-4.01-.25-.55-.5-1.11-.75-1.66-.44-.97-.89-1.94-1.34-2.9-.25-.54-.5-1.07-.76-1.61-.67-1.39-1.35-2.78-2.05-4.16-.16-.32-.33-.64-.5-.96-.6-1.18-1.22-2.35-1.84-3.52-.23-.43-.46-.85-.69-1.28-.78-1.44-1.57-2.87-2.38-4.29 0-.01-.01-.02-.02-.03v-.01l-137.38-238.16 92.38-160 136.98 237.99c14.62 25.33 23.37 52.64 26 81.17 2.11 22.87.32 46.59-5.33 70.5z"/>
    </g>
  </g>
</svg>
