<?xml version="1.0" encoding="utf-8"?>
<!-- Generator: Adobe Illustrator 19.2.1, SVG Export Plug-In . SVG Version: 6.00 Build 0)  -->
<svg version="1.1" id="rascal" xmlns="http://www.w3.org/2000/svg" xmlns:xlink="http://www.w3.org/1999/xlink" x="0px" y="0px"
	 viewBox="0 0 41.7 39.8" style="enable-background:new 0 0 41.7 39.8;" xml:space="preserve">
<style type="text/css">
	.st0{fill:#ACD084;}
	.st1{fill:#CAD52F;}
	.st2{fill:#83D0F5;}
	.st3{fill:#97B0C5;}
	.st4{fill:#8CA4B4;}
	.st5{fill:#6B7D8D;}
</style>
<polygon class="st0" points="9.7,20 14.5,20 17,15.8 12.1,15.8 "/>
<polygon class="st1" points="32.9,23.9 30.5,19.7 25.6,19.7 28,23.9 "/>
<polygon class="st2" points="23.6,1.8 21.2,6 23.6,10.2 26.1,6 "/>
<g>
	<polygon class="st3" points="18.8,27.4 14.3,19.6 11.8,23.8 20,37.9 28,23.9 25.6,19.7 21.2,27.4 	"/>
	<polygon class="st4" points="18.8,27.4 21.2,27.4 22.4,25.3 19.1,19.6 14.3,19.6 	"/>
	<polygon class="st5" points="28,23.9 32.9,23.9 24.8,37.9 20,37.9 	"/>
</g>
<g>
	<polygon class="st3" points="12.1,15.8 9.7,20 1.9,6.6 4.4,2.4 	"/>
	<path class="st5" d="M14.9,6c-1.5,0-2.6,1.7-1.9,3l0.7,1.2l5.4,0L21.6,6L14.9,6z"/>
	<path class="st4" d="M13,8.9c-0.7-1.2,0.4-3,1.9-3l6.7,0l-2.4-4.2l-5.3,0c-2.7,0-4.1,1.6-4.1,1.6l-0.6-1l-4.9,0l7.8,13.4l4.9,0
		L13,8.9z"/>
</g>
<g>
	<path class="st3" d="M30.4,20.1l3.8-6.6c0.9-1.5-0.1-3.3-1.8-3.3l-1.2,0L28,15.9L30.4,20.1L30.4,20.1L30.4,20.1z"/>
	<g>
		<polygon class="st4" points="38.5,8.9 38.5,8.9 38.5,8.9 		"/>
		<path class="st4" d="M27.1,6L27.1,6l6.6,0c2.1,0,3.8,1.2,4.8,2.8l-2.3-4c0,0-1.5-3-4.8-3l-7.7,0L26.1,6H27.1z"/>
	</g>
	<path class="st5" d="M34.2,13.4c0.9-1.5-0.1-3.3-1.8-3.3l-8.8,0L26.1,6l7.6,0c4.3,0,7,4.8,4.8,8.4l-3.3,5.7l-4.9,0L34.2,13.4z"/>
</g>
</svg>
